<svg width="16" height="16" viewBox="0 0 16 16" fill="none" xmlns="http://www.w3.org/2000/svg">
  <!-- 礼物盒 -->
  <!-- 盒子主体 -->
  <rect x="3" y="7" width="10" height="7" rx="0.5" stroke="white" stroke-width="1.2" stroke-linejoin="round"/>
  <!-- 盒子盖 -->
  <path d="M2.5 7H13.5V5C13.5 4.5 13 4 12.5 4H3.5C3 4 2.5 4.5 2.5 5V7Z" stroke="white" stroke-width="1.2" stroke-linejoin="round"/>
  <!-- 竖向丝带 -->
  <line x1="8" y1="4" x2="8" y2="14" stroke="white" stroke-width="1.2"/>
  <!-- 横向丝带 -->
  <line x1="2.5" y1="7" x2="13.5" y2="7" stroke="white" stroke-width="1.2"/>
  <!-- 蝴蝶结 -->
  <path d="M8 2.5C7 2.5 6.5 3 6.5 4C6.5 3 6 2.5 5 2.5C6 2.5 6.5 3 6.5 4C6.5 3 7 2.5 8 2.5Z" stroke="white" stroke-width="1" stroke-linecap="round" stroke-linejoin="round"/>
  <path d="M8 2.5C9 2.5 9.5 3 9.5 4C9.5 3 10 2.5 11 2.5C10 2.5 9.5 3 9.5 4C9.5 3 9 2.5 8 2.5Z" stroke="white" stroke-width="1" stroke-linecap="round" stroke-linejoin="round"/>
</svg>
